<svg width="16" height="19" viewBox="0 0 16 19" fill="none" xmlns="http://www.w3.org/2000/svg">
<path d="M15.491 6.47701C14.8484 6.85713 14.316 7.38865 13.9439 8.02181C13.5717 8.65497 13.3718 9.36906 13.3629 10.0972C13.3655 10.9167 13.6167 11.7175 14.0854 12.4004C14.5541 13.0833 15.2198 13.6183 16 13.9391C15.6924 14.8984 15.2372 15.8075 14.6496 16.6357C13.8089 17.8055 12.9298 18.9753 11.5922 18.9753C10.2546 18.9753 9.91063 18.2242 8.36913 18.2242C6.86573 18.2242 6.33087 19 5.10825 19C3.88563 19 3.03198 17.9164 2.05107 16.5865C0.755225 14.7236 0.0430479 12.5387 0 10.2942C0 6.59992 2.4842 4.64224 4.93006 4.64224C6.22955 4.64224 7.3122 5.46727 8.12742 5.46727C8.90452 5.46727 10.1148 4.59302 11.5925 4.59302C12.3523 4.57401 13.1053 4.7359 13.7851 5.06444C14.465 5.39298 15.0508 5.87809 15.491 6.47701ZM8.22959 4.38364C8.13982 4.38338 8.05026 4.37516 7.96204 4.35908C7.93713 4.24569 7.92433 4.13013 7.92382 4.01421C7.96634 3.0612 8.34898 2.15183 9.00669 1.44068C9.74488 0.621079 10.7796 0.105603 11.8985 0C11.9251 0.125584 11.9379 0.253529 11.9367 0.381711C11.9124 1.35377 11.5437 2.28832 10.8921 3.02913C10.5664 3.41755 10.1625 3.73791 9.70479 3.97076C9.24709 4.20361 8.74519 4.34408 8.22959 4.38364Z" fill="black" fill-opacity="0.8"/>
</svg>
