<svg width="17" height="17" viewBox="0 0 17 17" fill="none" xmlns="http://www.w3.org/2000/svg">
<path d="M16.7293 14.9555L12.5538 10.8734C13.5507 9.57349 14.0175 7.9439 13.86 6.31336C13.7025 4.68282 12.9325 3.17269 11.7053 2.0876C10.4781 1.00252 8.885 0.423237 7.24745 0.466628C5.6099 0.51002 4.04974 1.17285 2.88172 2.32141C1.71369 3.46996 1.02473 5.01876 0.953824 6.65535C0.882917 8.29194 1.43534 9.89452 2.49965 11.1398C3.56395 12.3851 5.06094 13.1804 6.6886 13.3652C8.31626 13.5501 9.95346 13.1108 11.2699 12.1359L15.4704 16.2425C15.5549 16.3251 15.6549 16.3903 15.7646 16.4344C15.8743 16.4784 15.9916 16.5004 16.1098 16.4991C16.228 16.4978 16.3448 16.4732 16.4535 16.4267C16.5622 16.3803 16.6607 16.3129 16.7433 16.2284C16.826 16.1439 16.8912 16.0439 16.9352 15.9342C16.9792 15.8245 17.0012 15.7072 16.9999 15.589C16.9986 15.4708 16.974 15.354 16.9276 15.2453C16.8811 15.1366 16.8138 15.0381 16.7293 14.9555ZM2.19993 6.95378C2.20135 5.91663 2.5102 4.90317 3.08745 4.0415C3.6647 3.17983 4.48443 2.50863 5.44304 2.11271C6.40166 1.71679 7.45613 1.61394 8.47318 1.81715C9.49023 2.02036 10.4242 2.52052 11.1571 3.2544C11.89 3.98828 12.3888 4.92295 12.5907 5.94028C12.7925 6.95761 12.6882 8.01194 12.2909 8.97001C11.8937 9.92808 11.2214 10.7469 10.3589 11.323C9.49646 11.899 8.48258 12.2065 7.44543 12.2065C6.05375 12.204 4.71989 11.6496 3.7365 10.6648C2.75311 9.68008 2.20051 8.34546 2.19993 6.95378Z" fill="black" fill-opacity="0.8"/>
</svg>
