<svg width="16" height="19" viewBox="0 0 16 19" fill="none" xmlns="http://www.w3.org/2000/svg">
<path d="M12.9574 3.92682H11.8221C11.7317 2.97568 11.29 2.09238 10.5832 1.44953C9.87641 0.806669 8.95531 0.450439 7.99988 0.450439C7.04446 0.450439 6.12335 0.806669 5.41655 1.44953C4.70974 2.09238 4.26802 2.97568 4.17768 3.92682H3.04238C2.35308 3.92767 1.69225 4.20187 1.20484 4.68928C0.717429 5.17669 0.44323 5.83752 0.442383 6.52682V15.45C0.44323 16.1393 0.717429 16.8002 1.20484 17.2876C1.69225 17.775 2.35308 18.0492 3.04238 18.05H12.9574C13.6467 18.0492 14.3075 17.775 14.7949 17.2876C15.2823 16.8002 15.5565 16.1393 15.5574 15.45V6.52692C15.5566 5.8376 15.2824 5.17675 14.795 4.68932C14.3075 4.20188 13.6467 3.92767 12.9574 3.92682ZM7.99988 1.65002C8.63727 1.65203 9.25272 1.88302 9.73403 2.30087C10.2153 2.71873 10.5305 3.29563 10.622 3.92642H5.37778C5.46929 3.29563 5.78442 2.71873 6.26573 2.30087C6.74705 1.88302 7.36249 1.65203 7.99988 1.65002ZM14.3573 15.45C14.3569 15.8212 14.2093 16.1771 13.9468 16.4396C13.6844 16.702 13.3285 16.8497 12.9573 16.85H3.04238C2.67119 16.8497 2.31531 16.702 2.05284 16.4396C1.79037 16.1771 1.64275 15.8212 1.64238 15.45V6.52692C1.64275 6.15574 1.79037 5.79985 2.05284 5.53738C2.31531 5.27491 2.67119 5.1273 3.04238 5.12692H12.9574C13.3286 5.1273 13.6845 5.27491 13.9469 5.53738C14.2094 5.79985 14.357 6.15574 14.3574 6.52692L14.3573 15.45Z" fill="black" fill-opacity="0.8"/>
</svg>
