<svg width="110" height="39" viewBox="0 0 110 39" fill="none" xmlns="http://www.w3.org/2000/svg">
<path d="M25.172 10.9076C24.128 11.548 23.2632 12.4433 22.6586 13.5098C22.054 14.5762 21.7293 15.7789 21.715 17.0053C21.7191 18.3855 22.1273 19.7343 22.8889 20.8844C23.6506 22.0346 24.7323 22.9357 26 23.476C25.5002 25.0917 24.7604 26.6228 23.8057 28.0179C22.4395 29.9883 21.0111 31.9584 18.8376 31.9584C16.6641 31.9584 16.1051 30.6933 13.6003 30.6933C11.1576 30.6933 10.2882 32 8.30088 32C6.3136 32 4.92681 30.1748 3.33278 27.935C1.22718 24.7972 0.0699703 21.1174 0 17.337C0 11.1151 4.03669 7.81756 8.01105 7.81756C10.1226 7.81756 11.8822 9.20697 13.207 9.20697C14.4698 9.20697 16.4364 7.73443 18.8376 7.73443C20.0722 7.70252 21.2956 7.97524 22.4003 8.5286C23.5049 9.08195 24.4567 9.89895 25.172 10.9076ZM17.6991 5.10059C18.7576 3.85308 19.3568 2.27946 19.3966 0.642594C19.3984 0.426807 19.3775 0.211429 19.3344 0C17.5162 0.177946 15.8349 1.04617 14.6353 2.4266C13.5666 3.6244 12.9449 5.156 12.8757 6.7611C12.8765 6.9563 12.8974 7.1509 12.9379 7.34184C13.0812 7.36899 13.2267 7.3829 13.3726 7.38341C14.2106 7.31661 15.0262 7.07979 15.77 6.68736C16.5137 6.29492 17.1701 5.75506 17.6991 5.10059Z" fill="black" fill-opacity="0.8"/>
<path d="M56.9318 15.875H51.9545C51.8636 15.2311 51.678 14.6591 51.3977 14.1591C51.1174 13.6515 50.7576 13.2197 50.3182 12.8636C49.8788 12.5076 49.3712 12.2348 48.7955 12.0455C48.2273 11.8561 47.6098 11.7614 46.9432 11.7614C45.7386 11.7614 44.6894 12.0606 43.7955 12.6591C42.9015 13.25 42.2083 14.1136 41.7159 15.25C41.2235 16.3788 40.9773 17.75 40.9773 19.3636C40.9773 21.0227 41.2235 22.4167 41.7159 23.5455C42.2159 24.6742 42.9129 25.5265 43.8068 26.1023C44.7008 26.678 45.7348 26.9659 46.9091 26.9659C47.5682 26.9659 48.178 26.8788 48.7386 26.7045C49.3068 26.5303 49.8106 26.2765 50.25 25.9432C50.6894 25.6023 51.053 25.1894 51.3409 24.7045C51.6364 24.2197 51.8409 23.6667 51.9545 23.0455L56.9318 23.0682C56.803 24.1364 56.4811 25.1667 55.9659 26.1591C55.4583 27.1439 54.7727 28.0265 53.9091 28.8068C53.053 29.5795 52.0303 30.1932 50.8409 30.6477C49.6591 31.0947 48.322 31.3182 46.8295 31.3182C44.7538 31.3182 42.8977 30.8485 41.2614 29.9091C39.6326 28.9697 38.3447 27.6098 37.3977 25.8295C36.4583 24.0492 35.9886 21.8939 35.9886 19.3636C35.9886 16.8258 36.4659 14.6667 37.4205 12.8864C38.375 11.1061 39.6705 9.75 41.3068 8.81818C42.9432 7.87879 44.7841 7.40909 46.8295 7.40909C48.178 7.40909 49.428 7.59848 50.5795 7.97727C51.7386 8.35606 52.7652 8.90909 53.6591 9.63636C54.553 10.3561 55.2803 11.2386 55.8409 12.2841C56.4091 13.3295 56.7727 14.5265 56.9318 15.875ZM65.3466 31.3295C64.233 31.3295 63.2405 31.1364 62.3693 30.75C61.4981 30.3561 60.8087 29.7765 60.3011 29.0114C59.8011 28.2386 59.5511 27.2765 59.5511 26.125C59.5511 25.1553 59.7292 24.3409 60.0852 23.6818C60.4413 23.0227 60.9261 22.4924 61.5398 22.0909C62.1534 21.6894 62.8504 21.3864 63.6307 21.1818C64.4186 20.9773 65.2443 20.8333 66.108 20.75C67.1231 20.6439 67.9413 20.5455 68.5625 20.4545C69.1837 20.3561 69.6345 20.2121 69.9148 20.0227C70.1951 19.8333 70.3352 19.553 70.3352 19.1818V19.1136C70.3352 18.3939 70.108 17.8371 69.6534 17.4432C69.2064 17.0492 68.5701 16.8523 67.7443 16.8523C66.8731 16.8523 66.1799 17.0455 65.6648 17.4318C65.1496 17.8106 64.8087 18.2879 64.642 18.8636L60.1648 18.5C60.392 17.4394 60.839 16.5227 61.5057 15.75C62.1723 14.9697 63.0322 14.3712 64.0852 13.9545C65.1458 13.5303 66.3731 13.3182 67.767 13.3182C68.7367 13.3182 69.6648 13.4318 70.5511 13.6591C71.4451 13.8864 72.2367 14.2386 72.9261 14.7159C73.6231 15.1932 74.1723 15.8068 74.5739 16.5568C74.9754 17.2992 75.1761 18.1894 75.1761 19.2273V31H70.5852V28.5795H70.4489C70.1686 29.125 69.7936 29.6061 69.3239 30.0227C68.8542 30.4318 68.2898 30.7538 67.6307 30.9886C66.9716 31.2159 66.2102 31.3295 65.3466 31.3295ZM66.733 27.9886C67.4451 27.9886 68.0739 27.8485 68.6193 27.5682C69.1648 27.2803 69.5928 26.8939 69.9034 26.4091C70.214 25.9242 70.3693 25.375 70.3693 24.7614V22.9091C70.2178 23.0076 70.0095 23.0985 69.7443 23.1818C69.4867 23.2576 69.1951 23.3295 68.8693 23.3977C68.5436 23.4583 68.2178 23.5152 67.892 23.5682C67.5663 23.6136 67.2708 23.6553 67.0057 23.6932C66.4375 23.7765 65.9413 23.9091 65.517 24.0909C65.0928 24.2727 64.7633 24.5189 64.5284 24.8295C64.2936 25.1326 64.1761 25.5114 64.1761 25.9659C64.1761 26.625 64.4148 27.1288 64.892 27.4773C65.3769 27.8182 65.9905 27.9886 66.733 27.9886ZM78.9318 31V13.5455H83.625V16.5909H83.8068C84.125 15.5076 84.6591 14.6894 85.4091 14.1364C86.1591 13.5758 87.0227 13.2955 88 13.2955C88.2424 13.2955 88.5038 13.3106 88.7841 13.3409C89.0644 13.3712 89.3106 13.4129 89.5227 13.4659V17.7614C89.2955 17.6932 88.9811 17.6326 88.5795 17.5795C88.178 17.5265 87.8106 17.5 87.4773 17.5C86.7652 17.5 86.1288 17.6553 85.5682 17.9659C85.0152 18.2689 84.5758 18.6932 84.25 19.2386C83.9318 19.7841 83.7727 20.4129 83.7727 21.125V31H78.9318ZM97.6449 31.2841C96.3191 31.2841 95.1184 30.9432 94.0426 30.2614C92.9744 29.572 92.1259 28.5606 91.4972 27.2273C90.8759 25.8864 90.5653 24.2424 90.5653 22.2955C90.5653 20.2955 90.8873 18.6326 91.5312 17.3068C92.1752 15.9735 93.0313 14.9773 94.0994 14.3182C95.1752 13.6515 96.3532 13.3182 97.6335 13.3182C98.6108 13.3182 99.4252 13.4848 100.077 13.8182C100.736 14.1439 101.266 14.553 101.668 15.0455C102.077 15.5303 102.387 16.0076 102.599 16.4773H102.747V7.72727H107.577V31H102.804V28.2045H102.599C102.372 28.6894 102.05 29.1705 101.634 29.6477C101.224 30.1174 100.69 30.5076 100.031 30.8182C99.3797 31.1288 98.5843 31.2841 97.6449 31.2841ZM99.179 27.4318C99.9593 27.4318 100.618 27.2197 101.156 26.7955C101.702 26.3636 102.118 25.7614 102.406 24.9886C102.702 24.2159 102.849 23.3106 102.849 22.2727C102.849 21.2348 102.705 20.3333 102.418 19.5682C102.13 18.803 101.713 18.2121 101.168 17.7955C100.622 17.3788 99.9593 17.1705 99.179 17.1705C98.3835 17.1705 97.7131 17.3864 97.1676 17.8182C96.6222 18.25 96.2093 18.8485 95.929 19.6136C95.6487 20.3788 95.5085 21.2652 95.5085 22.2727C95.5085 23.2879 95.6487 24.1856 95.929 24.9659C96.2169 25.7386 96.6297 26.3447 97.1676 26.7841C97.7131 27.2159 98.3835 27.4318 99.179 27.4318Z" fill="black"/>
</svg>
