<svg width="153" height="34" viewBox="0 0 153 34" fill="none" xmlns="http://www.w3.org/2000/svg">
<path d="M21.7994 9.20332C20.916 9.74366 20.1843 10.4991 19.6727 11.3989C19.1611 12.2987 18.8863 13.3134 18.8742 14.3482C18.8777 15.5128 19.2231 16.6508 19.8676 17.6213C20.512 18.5917 21.4273 19.352 22.5 19.8079C22.0771 21.1711 21.4511 22.463 20.6433 23.6401C19.4873 25.3026 18.2786 26.9649 16.4395 26.9649C14.6004 26.9649 14.1274 25.8975 12.0079 25.8975C9.94107 25.8975 9.20537 27 7.52382 27C5.84228 27 4.66884 25.46 3.32004 23.5701C1.53838 20.9226 0.559206 17.8178 0.5 14.6281C0.5 9.37834 3.91566 6.59607 7.27858 6.59607C9.06528 6.59607 10.5542 7.76838 11.6752 7.76838C12.7436 7.76838 14.4077 6.52592 16.4395 6.52592C17.4841 6.499 18.5194 6.72911 19.4541 7.196C20.3887 7.6629 21.1942 8.35224 21.7994 9.20332ZM15.4762 4.30363C16.3718 3.25104 16.8788 1.92329 16.9125 0.542189C16.914 0.360119 16.8964 0.178393 16.8599 0C15.3214 0.150142 13.8988 0.882709 12.8837 2.04744C11.9795 3.05809 11.4534 4.35037 11.3949 5.70468C11.3955 5.86938 11.4131 6.03358 11.4474 6.19468C11.5687 6.21759 11.6918 6.22932 11.8153 6.22975C12.5243 6.17339 13.2145 5.97357 13.8438 5.64246C14.4732 5.31134 15.0285 4.85584 15.4762 4.30363Z" fill="black" fill-opacity="0.8"/>
<path d="M32.6642 10.1861V6.63636H49.3887V10.1861H43.1543V27H38.8986V10.1861H32.6642ZM50.4775 27V11.7273H54.584V14.392H54.7431C55.0215 13.4441 55.4888 12.7282 56.1451 12.2443C56.8013 11.7538 57.557 11.5085 58.4121 11.5085C58.6242 11.5085 58.8529 11.5218 59.0982 11.5483C59.3435 11.5748 59.5589 11.6113 59.7445 11.6577V15.4162C59.5456 15.3565 59.2705 15.3035 58.9192 15.2571C58.5679 15.2107 58.2464 15.1875 57.9547 15.1875C57.3316 15.1875 56.7748 15.3234 56.2843 15.5952C55.8004 15.8603 55.4159 16.2315 55.1309 16.7088C54.8525 17.1861 54.7132 17.7363 54.7132 18.3594V27H50.4775ZM65.8521 27.2884C64.8777 27.2884 64.0093 27.1193 63.247 26.7812C62.4847 26.4366 61.8815 25.9295 61.4373 25.2599C60.9998 24.5838 60.7811 23.742 60.7811 22.7344C60.7811 21.8859 60.9368 21.1733 61.2484 20.5966C61.56 20.0199 61.9842 19.5559 62.5211 19.2045C63.0581 18.8532 63.6679 18.5881 64.3507 18.4091C65.0401 18.2301 65.7626 18.1042 66.5183 18.0312C67.4065 17.9384 68.1225 17.8523 68.666 17.7727C69.2096 17.6866 69.604 17.5606 69.8493 17.3949C70.0945 17.2292 70.2172 16.9839 70.2172 16.6591V16.5994C70.2172 15.9697 70.0183 15.4825 69.6206 15.1378C69.2295 14.7931 68.6726 14.6207 67.9501 14.6207C67.1878 14.6207 66.5813 14.7898 66.1305 15.1278C65.6797 15.4593 65.3815 15.8769 65.2356 16.3807L61.318 16.0625C61.5169 15.1345 61.908 14.3324 62.4913 13.6562C63.0746 12.9735 63.827 12.4498 64.7484 12.0852C65.6764 11.714 66.7503 11.5284 67.97 11.5284C68.8185 11.5284 69.6305 11.6278 70.4061 11.8267C71.1883 12.0256 71.881 12.3338 72.4842 12.7514C73.094 13.169 73.5746 13.706 73.926 14.3622C74.2773 15.0118 74.4529 15.7907 74.4529 16.6989V27H70.4359V24.8821H70.3166C70.0713 25.3594 69.7432 25.7803 69.3322 26.1449C68.9212 26.5028 68.4274 26.7846 67.8507 26.9901C67.274 27.1889 66.6078 27.2884 65.8521 27.2884ZM67.0652 24.3651C67.6883 24.3651 68.2385 24.2424 68.7157 23.9972C69.193 23.7453 69.5675 23.4072 69.8393 22.983C70.1111 22.5587 70.247 22.0781 70.247 21.5412V19.9205C70.1144 20.0066 69.9321 20.0862 69.7001 20.1591C69.4747 20.2254 69.2195 20.2884 68.9345 20.348C68.6494 20.401 68.3644 20.4508 68.0794 20.4972C67.7943 20.5369 67.5358 20.5734 67.3038 20.6065C66.8066 20.6795 66.3725 20.7955 66.0012 20.9545C65.63 21.1136 65.3417 21.3291 65.1362 21.6009C64.9307 21.866 64.8279 22.1974 64.8279 22.5952C64.8279 23.1719 65.0368 23.6127 65.4544 23.9176C65.8786 24.2159 66.4155 24.3651 67.0652 24.3651ZM83.367 27.2486C82.207 27.2486 81.1563 26.9503 80.215 26.3537C79.2804 25.7505 78.5379 24.8655 77.9877 23.6989C77.4442 22.5256 77.1724 21.0871 77.1724 19.3835C77.1724 17.6335 77.4541 16.1785 78.0176 15.0185C78.581 13.8518 79.3301 12.9801 80.2647 12.4034C81.206 11.8201 82.2368 11.5284 83.3571 11.5284C84.2122 11.5284 84.9248 11.6742 85.4949 11.9659C86.0716 12.2509 86.5356 12.6089 86.8869 13.0398C87.2449 13.464 87.5166 13.8816 87.7022 14.2926H87.8315V6.63636H92.0574V27H87.8812V24.554H87.7022C87.5034 24.9782 87.2217 25.3991 86.8571 25.8168C86.4991 26.2277 86.0318 26.5691 85.4551 26.8409C84.885 27.1127 84.189 27.2486 83.367 27.2486ZM84.7093 23.8778C85.3921 23.8778 85.9688 23.6922 86.4395 23.321C86.9167 22.9432 87.2813 22.4162 87.5332 21.7401C87.7917 21.0639 87.921 20.2718 87.921 19.3636C87.921 18.4555 87.795 17.6667 87.5431 16.9972C87.2913 16.3277 86.9267 15.8106 86.4494 15.446C85.9721 15.0814 85.3921 14.8991 84.7093 14.8991C84.0133 14.8991 83.4267 15.0881 82.9494 15.4659C82.4721 15.8437 82.1109 16.3674 81.8656 17.0369C81.6203 17.7064 81.4977 18.482 81.4977 19.3636C81.4977 20.2519 81.6203 21.0374 81.8656 21.7202C82.1175 22.3963 82.4788 22.9266 82.9494 23.3111C83.4267 23.6889 84.0133 23.8778 84.7093 23.8778ZM102.5 27.2983C100.929 27.2983 99.5769 26.9801 98.4434 26.3438C97.3165 25.7008 96.4481 24.7926 95.8382 23.6193C95.2284 22.4394 94.9235 21.044 94.9235 19.4332C94.9235 17.8622 95.2284 16.4834 95.8382 15.2969C96.4481 14.1103 97.3065 13.1856 98.4135 12.5227C99.5272 11.8598 100.833 11.5284 102.331 11.5284C103.339 11.5284 104.277 11.6908 105.145 12.0156C106.02 12.3338 106.782 12.8144 107.432 13.4574C108.088 14.1004 108.599 14.9091 108.963 15.8835C109.328 16.8513 109.51 17.9848 109.51 19.2841V20.4474H96.6138V17.8224H105.523C105.523 17.2126 105.39 16.6723 105.125 16.2017C104.86 15.7311 104.492 15.3632 104.021 15.098C103.557 14.8262 103.017 14.6903 102.401 14.6903C101.758 14.6903 101.188 14.8395 100.691 15.1378C100.2 15.4295 99.8155 15.8239 99.5371 16.321C99.2587 16.8116 99.1162 17.3584 99.1096 17.9616V20.4574C99.1096 21.2131 99.2488 21.866 99.5272 22.4162C99.8122 22.9664 100.213 23.3906 100.73 23.6889C101.247 23.9872 101.86 24.1364 102.57 24.1364C103.04 24.1364 103.471 24.0701 103.862 23.9375C104.253 23.8049 104.588 23.6061 104.867 23.3409C105.145 23.0758 105.357 22.7509 105.503 22.3665L109.421 22.625C109.222 23.5663 108.814 24.3883 108.198 25.0909C107.588 25.7869 106.799 26.3305 105.831 26.7216C104.87 27.1061 103.76 27.2983 102.5 27.2983ZM123.14 6.63636V27H118.834V6.63636H123.14ZM130.838 18.1705V27H126.602V11.7273H130.639V14.4219H130.818C131.156 13.5336 131.723 12.831 132.519 12.3139C133.314 11.7902 134.279 11.5284 135.412 11.5284C136.473 11.5284 137.397 11.7604 138.186 12.2244C138.975 12.6884 139.588 13.3513 140.026 14.2131C140.463 15.0682 140.682 16.089 140.682 17.2756V27H136.446V18.0312C136.453 17.0966 136.214 16.3674 135.73 15.8438C135.246 15.3134 134.58 15.0483 133.732 15.0483C133.162 15.0483 132.658 15.1709 132.22 15.4162C131.789 15.6615 131.451 16.0194 131.206 16.4901C130.968 16.9541 130.845 17.5142 130.838 18.1705Z" fill="black"/>
</svg>
