<svg width="153" height="54" viewBox="0 0 153 54" fill="none" xmlns="http://www.w3.org/2000/svg">
<path d="M21.7994 9.20332C20.916 9.74366 20.1843 10.4991 19.6727 11.3989C19.1611 12.2987 18.8863 13.3134 18.8742 14.3482C18.8777 15.5128 19.2231 16.6508 19.8676 17.6213C20.512 18.5917 21.4273 19.352 22.5 19.8079C22.0771 21.1711 21.4511 22.463 20.6433 23.6401C19.4873 25.3026 18.2786 26.9649 16.4395 26.9649C14.6004 26.9649 14.1274 25.8975 12.0079 25.8975C9.94107 25.8975 9.20537 27 7.52382 27C5.84228 27 4.66884 25.46 3.32004 23.5701C1.53838 20.9226 0.559206 17.8178 0.5 14.6281C0.5 9.37834 3.91566 6.59607 7.27858 6.59607C9.06528 6.59607 10.5542 7.76838 11.6752 7.76838C12.7436 7.76838 14.4077 6.52592 16.4395 6.52592C17.4841 6.499 18.5194 6.72911 19.4541 7.196C20.3887 7.6629 21.1942 8.35224 21.7994 9.20332ZM15.4762 4.30363C16.3718 3.25104 16.8788 1.92329 16.9125 0.542189C16.914 0.360119 16.8964 0.178393 16.8599 0C15.3214 0.150142 13.8988 0.882709 12.8837 2.04744C11.9795 3.05809 11.4534 4.35037 11.3949 5.70468C11.3955 5.86938 11.4131 6.03358 11.4474 6.19468C11.5687 6.21759 11.6918 6.22932 11.8153 6.22975C12.5243 6.17339 13.2145 5.97357 13.8438 5.64246C14.4732 5.31134 15.0285 4.85584 15.4762 4.30363Z" fill="black" fill-opacity="0.8"/>
<path d="M40.7853 27L34.9586 6.63636H39.6618L43.0325 20.7855H43.2015L46.9203 6.63636H50.9473L54.6561 20.8153H54.835L58.2058 6.63636H62.9089L57.0822 27H52.8862L49.0083 13.6861H48.8493L44.9814 27H40.7853ZM66.6724 27H62.0588L69.0886 6.63636H74.6369L81.6568 27H77.0431L71.9423 11.2898H71.7832L66.6724 27ZM66.3841 18.9957H77.2818V22.3565H66.3841V18.9957ZM80.8439 10.1861V6.63636H97.5684V10.1861H91.334V27H87.0783V10.1861H80.8439ZM117.36 13.7656H113.005C112.926 13.2022 112.763 12.7017 112.518 12.2642C112.273 11.8201 111.958 11.4422 111.573 11.1307C111.189 10.8191 110.745 10.5805 110.241 10.4148C109.744 10.2491 109.204 10.1662 108.62 10.1662C107.566 10.1662 106.648 10.428 105.866 10.9517C105.084 11.4687 104.477 12.2244 104.046 13.2188C103.615 14.2064 103.4 15.4062 103.4 16.8182C103.4 18.2699 103.615 19.4896 104.046 20.4773C104.484 21.465 105.094 22.2107 105.876 22.7145C106.658 23.2183 107.563 23.4702 108.59 23.4702C109.167 23.4702 109.701 23.3939 110.191 23.2415C110.688 23.089 111.129 22.867 111.514 22.5753C111.898 22.277 112.216 21.9157 112.468 21.4915C112.727 21.0672 112.906 20.5833 113.005 20.0398L117.36 20.0597C117.248 20.9943 116.966 21.8958 116.515 22.7642C116.071 23.6259 115.471 24.3982 114.715 25.081C113.966 25.7571 113.071 26.294 112.031 26.6918C110.997 27.0829 109.827 27.2784 108.521 27.2784C106.704 27.2784 105.08 26.8674 103.649 26.0455C102.223 25.2235 101.097 24.0336 100.268 22.4759C99.446 20.9181 99.035 19.0322 99.035 16.8182C99.035 14.5975 99.4526 12.7083 100.288 11.1506C101.123 9.5928 102.257 8.40625 103.688 7.59091C105.12 6.76894 106.731 6.35795 108.521 6.35795C109.701 6.35795 110.794 6.52367 111.802 6.85511C112.816 7.18655 113.714 7.67045 114.497 8.30682C115.279 8.93655 115.915 9.70881 116.406 10.6236C116.903 11.5384 117.221 12.5857 117.36 13.7656ZM120.448 27V6.63636H124.753V15.0384H133.493V6.63636H137.789V27H133.493V18.5881H124.753V27H120.448Z" fill="black"/>
<path d="M42.7251 44.2646C42.6881 43.8922 42.5296 43.6029 42.2496 43.3967C41.9695 43.1905 41.5894 43.0874 41.1093 43.0874C40.7831 43.0874 40.5076 43.1335 40.2829 43.2259C40.0583 43.3151 39.8859 43.4397 39.7659 43.5998C39.6489 43.7598 39.5905 43.9414 39.5905 44.1445C39.5843 44.3138 39.6197 44.4615 39.6966 44.5877C39.7767 44.7139 39.8859 44.8232 40.0244 44.9155C40.1629 45.0047 40.3229 45.0832 40.5045 45.1509C40.6861 45.2156 40.88 45.271 41.0862 45.3171L41.9356 45.5202C42.348 45.6126 42.7266 45.7357 43.0713 45.8896C43.416 46.0434 43.7145 46.2327 43.9669 46.4574C44.2193 46.6821 44.4147 46.9467 44.5532 47.2514C44.6948 47.5561 44.7671 47.9054 44.7702 48.2994C44.7671 48.878 44.6193 49.3796 44.327 49.8043C44.0377 50.226 43.6191 50.5537 43.0713 50.7876C42.5265 51.0185 41.8695 51.1339 41.1001 51.1339C40.3368 51.1339 39.672 51.0169 39.1057 50.783C38.5425 50.5491 38.1024 50.2029 37.7854 49.7443C37.4715 49.2827 37.3068 48.7118 37.2915 48.0316H39.2258C39.2473 48.3486 39.3381 48.6133 39.4981 48.8256C39.6613 49.0349 39.8782 49.1934 40.1491 49.3011C40.423 49.4058 40.7323 49.4581 41.077 49.4581C41.4155 49.4581 41.7094 49.4089 41.9587 49.3104C42.2111 49.2119 42.4065 49.0749 42.545 48.8995C42.6835 48.7241 42.7528 48.5225 42.7528 48.2947C42.7528 48.0824 42.6897 47.9039 42.5635 47.7592C42.4404 47.6146 42.2588 47.4915 42.0187 47.3899C41.7818 47.2884 41.4909 47.196 41.1462 47.1129L40.1167 46.8544C39.3196 46.6605 38.6903 46.3574 38.2286 45.945C37.767 45.5326 37.5377 44.977 37.5407 44.2784C37.5377 43.706 37.69 43.2058 37.9978 42.7781C38.3086 42.3503 38.7349 42.0163 39.2765 41.7763C39.8182 41.5362 40.4337 41.4162 41.1231 41.4162C41.8248 41.4162 42.4373 41.5362 42.9605 41.7763C43.4868 42.0163 43.8961 42.3503 44.1885 42.7781C44.4809 43.2058 44.6317 43.7013 44.6409 44.2646H42.7251ZM48.1147 51V41.5455H54.4854V43.1935H50.1136V45.4464H54.1577V47.0945H50.1136V49.3519H54.5039V51H48.1147ZM58.0747 51V41.5455H61.8048C62.5188 41.5455 63.1282 41.6732 63.6329 41.9286C64.1407 42.181 64.527 42.5395 64.7916 43.0043C65.0594 43.4659 65.1933 44.0091 65.1933 44.6339C65.1933 45.2617 65.0579 45.8018 64.787 46.2543C64.5162 46.7036 64.1238 47.0483 63.6098 47.2884C63.0989 47.5284 62.4803 47.6484 61.754 47.6484H59.2565V46.0419H61.4308C61.8125 46.0419 62.1295 45.9896 62.3818 45.8849C62.6342 45.7803 62.8219 45.6233 62.945 45.4141C63.0712 45.2048 63.1343 44.9447 63.1343 44.6339C63.1343 44.32 63.0712 44.0553 62.945 43.8398C62.8219 43.6244 62.6327 43.4613 62.3772 43.3505C62.1249 43.2366 61.8063 43.1797 61.4216 43.1797H60.0736V51H58.0747ZM63.1805 46.6974L65.5303 51H63.3236L61.0246 46.6974H63.1805ZM70.6048 41.5455V51H68.6059V41.5455H70.6048ZM74.2495 51V41.5455H80.6202V43.1935H76.2484V45.4464H80.2924V47.0945H76.2484V49.3519H80.6387V51H74.2495ZM89.3383 44.2646C89.3014 43.8922 89.1429 43.6029 88.8628 43.3967C88.5828 43.1905 88.2027 43.0874 87.7226 43.0874C87.3963 43.0874 87.1209 43.1335 86.8962 43.2259C86.6715 43.3151 86.4992 43.4397 86.3792 43.5998C86.2622 43.7598 86.2037 43.9414 86.2037 44.1445C86.1976 44.3138 86.233 44.4615 86.3099 44.5877C86.3899 44.7139 86.4992 44.8232 86.6377 44.9155C86.7762 45.0047 86.9362 45.0832 87.1178 45.1509C87.2994 45.2156 87.4933 45.271 87.6995 45.3171L88.5489 45.5202C88.9613 45.6126 89.3399 45.7357 89.6846 45.8896C90.0293 46.0434 90.3278 46.2327 90.5802 46.4574C90.8325 46.6821 91.028 46.9467 91.1665 47.2514C91.308 47.5561 91.3804 47.9054 91.3834 48.2994C91.3804 48.878 91.2326 49.3796 90.9403 49.8043C90.651 50.226 90.2324 50.5537 89.6846 50.7876C89.1398 51.0185 88.4827 51.1339 87.7133 51.1339C86.9501 51.1339 86.2853 51.0169 85.719 50.783C85.1558 50.5491 84.7157 50.2029 84.3987 49.7443C84.0848 49.2827 83.9201 48.7118 83.9047 48.0316H85.839C85.8606 48.3486 85.9514 48.6133 86.1114 48.8256C86.2745 49.0349 86.4915 49.1934 86.7623 49.3011C87.0363 49.4058 87.3456 49.4581 87.6903 49.4581C88.0288 49.4581 88.3227 49.4089 88.572 49.3104C88.8244 49.2119 89.0198 49.0749 89.1583 48.8995C89.2968 48.7241 89.366 48.5225 89.366 48.2947C89.366 48.0824 89.3029 47.9039 89.1768 47.7592C89.0537 47.6146 88.8721 47.4915 88.632 47.3899C88.395 47.2884 88.1042 47.196 87.7595 47.1129L86.73 46.8544C85.9329 46.6605 85.3035 46.3574 84.8419 45.945C84.3802 45.5326 84.151 44.977 84.154 44.2784C84.151 43.706 84.3033 43.2058 84.6111 42.7781C84.9219 42.3503 85.3482 42.0163 85.8898 41.7763C86.4315 41.5362 87.047 41.4162 87.7364 41.4162C88.4381 41.4162 89.0506 41.5362 89.5738 41.7763C90.1001 42.0163 90.5094 42.3503 90.8018 42.7781C91.0941 43.2058 91.2449 43.7013 91.2542 44.2646H89.3383ZM105.795 41.5455V51H103.796V43.4428H103.74L101.575 44.8001V43.0273L103.916 41.5455H105.795ZM111.749 51.2077C110.955 51.2047 110.271 51.0092 109.699 50.6214C109.13 50.2337 108.691 49.672 108.383 48.9364C108.079 48.2009 107.928 47.3161 107.931 46.282C107.931 45.2509 108.083 44.3723 108.388 43.646C108.696 42.9196 109.134 42.3672 109.704 41.9886C110.276 41.607 110.958 41.4162 111.749 41.4162C112.54 41.4162 113.22 41.607 113.789 41.9886C114.362 42.3703 114.802 42.9242 115.11 43.6506C115.417 44.3738 115.57 45.2509 115.567 46.282C115.567 47.3191 115.413 48.2055 115.105 48.9411C114.8 49.6766 114.363 50.2383 113.794 50.6261C113.224 51.0138 112.543 51.2077 111.749 51.2077ZM111.749 49.5504C112.29 49.5504 112.723 49.2781 113.046 48.7333C113.369 48.1886 113.529 47.3714 113.526 46.282C113.526 45.5649 113.452 44.9678 113.305 44.4908C113.16 44.0137 112.954 43.6552 112.686 43.4151C112.421 43.1751 112.109 43.055 111.749 43.055C111.21 43.055 110.779 43.3243 110.456 43.8629C110.133 44.4015 109.97 45.2079 109.967 46.282C109.967 47.0083 110.039 47.6146 110.184 48.1009C110.331 48.584 110.539 48.9472 110.807 49.1903C111.075 49.4304 111.389 49.5504 111.749 49.5504Z" fill="black"/>
</svg>
